<svg width="21" height="29" viewBox="0 0 21 29" fill="none" xmlns="http://www.w3.org/2000/svg">
<path d="M3.48009 26.5027C2.18249 26.3347 1.25 25.0033 1.39752 23.5288L3.32909 4.26335C3.36199 3.9299 3.45179 3.60473 3.59439 3.30224H2.44009C1.13352 3.30224 0.0749512 4.50516 0.0749512 5.98939V25.3785C0.0749512 26.863 1.13352 28.066 2.44009 28.066H13.5615C13.8386 28.066 14.1033 28.0087 14.3509 27.9093L3.48009 26.5027Z" fill="white"/>
<path fill-rule="evenodd" clip-rule="evenodd" d="M15.9369 26.9854C17.2355 27.1531 18.4067 26.0939 18.5542 24.6194L20.4857 5.35393C20.6339 3.87942 19.702 2.54831 18.4038 2.37998L7.35439 0.950142C6.05549 0.782132 4.88459 1.841 4.73609 3.31551L2.80489 22.5813C2.65739 24.0558 3.58959 25.3866 4.88719 25.5552L15.9369 26.9854ZM11.1245 8.22091C11.068 8.75121 10.5677 12.7944 10.5677 12.7944L6.04119 12.2305C5.56969 12.1717 5.29129 14.4585 5.76279 14.5172L10.2893 15.0811L9.73259 19.6547C9.68419 20.0517 11.9475 20.3336 11.9958 19.9366L12.5526 15.3631C12.5526 15.3631 16.4888 15.8609 17.0791 15.927C17.6693 15.9931 17.9469 13.7137 17.3575 13.6402L12.831 13.0763C12.831 13.0763 13.3155 9.03121 13.3878 8.50281C13.46 7.97441 11.1811 7.69051 11.1245 8.22091Z" fill="white"/>
</svg>
