<svg width="94" height="34" viewBox="0 0 94 34" fill="none" xmlns="http://www.w3.org/2000/svg">
<path d="M33 25.7403H37.1601V6.25975H33V25.7403ZM49.0462 6.25975H41.0142V25.7403H45.1742V17.8553H49.0462C52.2337 17.8553 54.683 15.4249 54.683 12.141C54.683 8.89424 52.2337 6.25975 49.0462 6.25975ZM48.3796 14.3117H45.1742V10.026H48.3796C49.7124 10.026 50.7209 10.8979 50.7209 12.1781C50.7209 13.4768 49.7124 14.3117 48.3796 14.3117ZM68.2078 10.026V6.25975H56.826V25.7403H60.9861V17.8924H67.1633V14.1262H60.9861V10.026H68.2078ZM79.3914 26C83.1374 26 86.397 23.8293 88 20.6382L84.3981 18.7273C83.4976 20.5826 81.6246 21.8071 79.3914 21.8071C76.2038 21.8071 73.7905 19.2838 73.7905 16C73.7905 12.7162 76.2038 10.1929 79.3914 10.1929C81.6246 10.1929 83.4976 11.4174 84.3981 13.2727L88 11.3618C86.397 8.17069 83.1374 6 79.3914 6C74.0426 6 69.6846 10.4898 69.6846 16C69.6846 21.5287 74.0426 26 79.3914 26Z" fill="white"/>
<path d="M25.8014 27.3487C25.6348 28.9889 24.3123 30.1671 22.8459 29.9806L10.3686 28.3897C8.90335 28.2021 7.85076 26.7217 8.01734 25.0815L10.1981 3.65068C10.3658 2.01047 11.6879 0.832607 13.1546 1.01949L25.6316 2.61002C27.0975 2.79727 28.1498 4.27796 27.9825 5.91818L25.8014 27.3487Z" fill="white"/>
<path d="M8.81637 29.2956C7.36206 29.1124 6.31695 27.6608 6.48229 26.0531L8.6471 5.0479C8.68402 4.68432 8.78462 4.3298 8.9444 4H7.65077C6.18641 4 5 5.31156 5 6.92981V28.0698C5 29.6885 6.18641 31 7.65077 31H20.1152C20.4258 31 20.7224 30.9375 21 30.8292L8.81637 29.2956Z" fill="white"/>
</svg>
